<svg xmlns="http://www.w3.org/2000/svg" width="450" height="450" fill="none"><circle cx="225" cy="225" r="225" fill="#545BFE"/><mask id="a" width="450" height="450" x="0" y="0" maskUnits="userSpaceOnUse" style="mask-type:luminance"><circle cx="225" cy="225" r="225" fill="#fff"/></mask><g mask="url(#a)"><path fill="#4FCDF9" fill-rule="evenodd" d="M188 27c0-6.627-5.373-12-12-12H-29c-6.627 0-12 5.373-12 12s5.373 12 12 12h48c6.627 0 12 5.373 12 12s-5.373 12-12 12h-6C6.373 63 1 68.373 1 75s5.373 12 12 12H9c6.627 0 12 5.373 12 12s-5.373 12-12 12H-1c-6.627 0-12 5.373-12 12s5.373 12 12 12h119c6.627 0 12-5.373 12-12s-5.373-12-12-12h-5v-.01c-6.395-.262-11.5-5.53-11.5-11.99s5.105-11.728 11.5-11.99V87h69c6.627 0 12-5.373 12-12s-5.373-12-12-12h-7v-.01c-6.395-.263-11.5-5.53-11.5-11.99s5.105-11.727 11.5-11.99V39h1c6.627 0 12-5.373 12-12ZM98 159c6.627 0 12 5.373 12 12s-5.373 12-12 12-12-5.373-12-12 5.373-12 12-12Zm-37 36c0-6.627-5.373-12-12-12H14c-6.627 0-12 5.373-12 12s5.373 12 12 12h35c6.627 0 12-5.373 12-12Zm85 144c0 6.627-5.373 12-12 12h5c-6.627 0-12 5.373-12 12s5.373 12 12 12h29c6.627 0 12-5.373 12-12s-5.373-12-12-12h4v-.01c-6.395-.262-11.5-5.53-11.5-11.99s5.105-11.728 11.5-11.99V327h27c6.627 0 12-5.373 12-12s-5.373-12-12-12v-.01c-6.395-.262-11.5-5.53-11.5-11.99s5.105-11.728 11.5-11.99V279h6c6.627 0 12-5.373 12-12s-5.373-12-12-12h-51v-.01c-6.395-.263-11.5-5.53-11.5-11.99s5.105-11.727 11.5-11.99V231h-2c6.627 0 12-5.373 12-12s-5.373-12-12-12h-49c-6.627 0-12 5.373-12 12s5.373 12 12 12 12 5.373 12 12-5.373 12-12 12-12 5.373-12 12 5.373 12 12 12h10c6.627 0 12 5.373 12 12s-5.373 12-12 12h2c-6.627 0-12 5.373-12 12s5.373 12 12 12h19c6.627 0 12 5.373 12 12Z" clip-rule="evenodd"/></g><mask id="b" width="450" height="450" x="0" y="0" maskUnits="userSpaceOnUse" style="mask-type:luminance"><circle cx="225" cy="225" r="225" fill="#fff"/></mask><g mask="url(#b)"><path fill="#4FCDF9" fill-rule="evenodd" d="M422 51c0-6.627-5.373-12-12-12h-24c-6.627 0-12 5.373-12 12s5.373 12 12 12h24c6.627 0 12-5.373 12-12Zm238 12c6.627 0 12 5.373 12 12s-5.373 12-12 12h-7v.01c-6.395.262-11.5 5.53-11.5 11.99s5.105 11.728 11.5 11.99v.01h16c6.627 0 12 5.373 12 12s-5.373 12-12 12H495c-6.627 0-12-5.373-12-12s5.373-12 12-12h-5c6.627 0 12-5.373 12-12s-5.373-12-12-12h-41c-6.627 0-12-5.373-12-12s5.373-12 12-12h211ZM390 327c6.627 0 12-5.373 12-12s-5.373-12-12-12-12-5.373-12-12 5.373-12 12-12h-3c6.627 0 12-5.373 12-12s-5.373-12-12-12h-45c-6.627 0-12-5.373-12-12s5.373-12 12-12 12-5.373 12-12-5.373-12-12-12h-34c-6.627 0-12-5.373-12-12s5.373-12 12-12h26c6.627 0 12-5.373 12-12s-5.373-12-12-12-12-5.373-12-12 5.373-12 12-12h56c6.627 0 12 5.373 12 12s-5.373 12-12 12l-.001.01c-6.395.263-11.499 5.53-11.499 11.99s5.104 11.727 11.499 11.99l.001.01h91c6.627 0 12 5.373 12 12s-5.373 12-12 12h-20v.01c-6.395.263-11.5 5.53-11.5 11.99s5.105 11.727 11.5 11.99v.01h10c6.627 0 12 5.373 12 12s-5.373 12-12 12h-15l-.001.01c-6.395.263-11.499 5.53-11.499 11.99s5.104 11.727 11.499 11.99l.001.01h-2c6.627 0 12 5.373 12 12s-5.373 12-12 12h-20v.01c-6.395.262-11.5 5.53-11.5 11.99s5.105 11.728 11.5 11.99v.01h-4c6.627 0 12 5.373 12 12s-5.373 12-12 12h-36c-6.627 0-12-5.373-12-12s5.373-12 12-12h-4Zm90-24c6.627 0 12 5.373 12 12s-5.373 12-12 12-12-5.373-12-12 5.373-12 12-12Zm-6-156c0-6.627-5.373-12-12-12h-14c-6.627 0-12 5.373-12 12s5.373 12 12 12h14c6.627 0 12-5.373 12-12ZM371 99c0-6.627-5.373-12-12-12h-24c-6.627 0-12 5.373-12 12s5.373 12 12 12h24c6.627 0 12-5.373 12-12Zm26-12c6.627 0 12 5.373 12 12s-5.373 12-12 12h-3c-6.627 0-12-5.373-12-12s5.373-12 12-12h3Z" clip-rule="evenodd"/></g><mask id="c" width="450" height="450" x="0" y="0" maskUnits="userSpaceOnUse" style="mask-type:luminance"><circle cx="225" cy="225" r="225" fill="#fff"/></mask><g mask="url(#c)"><path fill="#fff" fill-rule="evenodd" d="M307 51c0-6.627-5.373-12-12-12H175c-6.627 0-12-5.373-12-12s5.373-12 12-12h49c6.627 0 12-5.373 12-12s-5.373-12-12-12h-16c-6.627 0-12-5.373-12-12s5.373-12 12-12h62c6.627 0 12 5.373 12 12s-5.373 12-12 12h2v.01c-6.395.262-11.5 5.53-11.5 11.99s5.105 11.728 11.5 11.99V15h160c6.627 0 12 5.373 12 12s-5.373 12-12 12h-68l-.001.01c-6.395.263-11.499 5.53-11.499 11.99s5.104 11.727 11.499 11.99L364 63h3c6.627 0 12 5.373 12 12s-5.373 12-12 12h-76c-6.627 0-12-5.373-12-12s5.373-12 12-12h4c6.627 0 12-5.373 12-12Zm106 60c6.627 0 12 5.373 12 12s-5.373 12-12 12h-62c-6.627 0-12-5.373-12-12s5.373-12 12-12h62Zm34-36c0-6.627-5.373-12-12-12h-20c-6.627 0-12 5.373-12 12s5.373 12 12 12h20c6.627 0 12-5.373 12-12ZM243 63c6.627 0 12 5.373 12 12s-5.373 12-12 12h-20c-6.627 0-12-5.373-12-12s5.373-12 12-12h20Zm243-84c0-6.627-5.373-12-12-12H318c-6.627 0-12 5.373-12 12s5.373 12 12 12h156c6.627 0 12-5.373 12-12Z" clip-rule="evenodd"/></g><mask id="d" width="450" height="450" x="0" y="0" maskUnits="userSpaceOnUse" style="mask-type:luminance"><circle cx="225" cy="225" r="225" fill="#fff"/></mask><g mask="url(#d)"><path fill="#fff" fill-rule="evenodd" d="M85 351c6.627 0 12 5.373 12 12s-5.373 12-12 12h-4c-6.627 0-12 5.373-12 12s5.373 12 12 12h76c6.627 0 12-5.373 12-12s-5.373-12-12-12h-3l-.001-.01c-6.395-.263-11.499-5.53-11.499-11.99s5.104-11.727 11.499-11.99L154 351h26c6.627 0 12-5.373 12-12s-5.373-12-12-12h-14v-.01c-6.395-.262-11.5-5.53-11.5-11.99s5.105-11.728 11.5-11.99V303h47c6.627 0 12-5.373 12-12s-5.373-12-12-12H95c-6.627 0-12 5.373-12 12s5.373 12 12 12h23c6.627 0 12 5.373 12 12s-5.373 12-12 12H17c-6.627 0-12 5.373-12 12s5.373 12 12 12h68Zm175-12c0-6.627-5.373-12-12-12h-20c-6.627 0-12 5.373-12 12s5.373 12 12 12h20c6.627 0 12-5.373 12-12Z" clip-rule="evenodd"/></g><mask id="e" width="450" height="450" x="0" y="0" maskUnits="userSpaceOnUse" style="mask-type:luminance"><circle cx="225" cy="225" r="225" fill="#fff"/></mask><g mask="url(#e)"><path fill="#fff" fill-rule="evenodd" d="M337 447c6.627 0 12 5.373 12 12s-5.373 12-12 12h-4c-6.627 0-12 5.373-12 12s5.373 12 12 12h76c6.627 0 12-5.373 12-12s-5.373-12-12-12h-3l-.001-.01c-6.395-.263-11.499-5.53-11.499-11.99s5.104-11.727 11.499-11.99L406 447h26c6.627 0 12-5.373 12-12s-5.373-12-12-12h-14v-.01c-6.395-.262-11.5-5.53-11.5-11.99s5.105-11.728 11.5-11.99V399h47c6.627 0 12-5.373 12-12s-5.373-12-12-12H347c-6.627 0-12 5.373-12 12s5.373 12 12 12h23c6.627 0 12 5.373 12 12s-5.373 12-12 12H269c-6.627 0-12 5.373-12 12s5.373 12 12 12h68Zm175-12c0-6.627-5.373-12-12-12h-20c-6.627 0-12 5.373-12 12s5.373 12 12 12h20c6.627 0 12-5.373 12-12Z" clip-rule="evenodd"/></g><mask id="f" width="450" height="450" x="0" y="0" maskUnits="userSpaceOnUse" style="mask-type:luminance"><circle cx="225" cy="225" r="225" fill="#fff"/></mask><g mask="url(#f)"><path fill="#000" d="M225.484-25h250.484v500H225.484z" opacity=".078"/></g></svg>