<svg xmlns="http://www.w3.org/2000/svg" width="12" height="12" fill="none"><path fill="#fff" fill-rule="evenodd" d="M9.75 0c.62 0 1.15.22 1.59.66.44.44.66.97.66 1.59v7.5c0 .62-.22 1.15-.66 1.59-.44.44-.97.66-1.59.66h-7.5c-.62 0-1.15-.22-1.59-.66C.22 10.9 0 10.37 0 9.75v-7.5C0 1.63.22 1.1.66.66 1.1.22 1.63 0 2.25 0h7.5Zm-.055 6.71A.467.467 0 0 0 10 6.25V2.5a.48.48 0 0 0-.148-.352A.481.481 0 0 0 9.5 2H5.75a.467.467 0 0 0-.46.305c-.09.213-.053.395.109.546l1.125 1.125-4.172 4.172a.48.48 0 0 0-.149.352c0 .135.05.253.149.351l.796.797a.48.48 0 0 0 .352.149c.136 0 .253-.05.352-.149l4.171-4.172 1.125 1.125a.465.465 0 0 0 .352.149.544.544 0 0 0 .195-.04Z" clip-rule="evenodd" opacity=".5"/></svg>